# xmcd
#
# Track frame offsets: 
#        150
#        13980
#        26992
#        39303
#        49113
#        60762
#        72953
#        85751
#        100184
#        112256
#        124637
#        135686
#        147599
#        159975
#        172449
#        186375
#        198068
#        212479
#        221539
#        231275
#
# Disc length: 3273 seconds
#
# Revision: 3
# Processed by: cddbd v1.5.2PL0 Copyright (c) Steve Scherf et al.
# Submitted via: ExactAudioCopyFreeDBPlugin 1.0
#
DISCID=270cc714
DTITLE=Various Artist - VeeJay:  The Very Best of Blues [Rhino-Collec
DTITLE=tables box set]
DYEAR=2000
DGENRE=Blues
TTITLE0=Elmore James - It Hurts Me Too
TTITLE1=Jimmy Reed - You've Got Me Dizzy
TTITLE2=John Lee Hooker - Crawlin' Black Spider
TTITLE3=Billy Boy Arnold - Here's My Picture
TTITLE4=Eddie Taylor - You'll Always Have a Home
TTITLE5=Billy "The Kid" Emerson - Every Woman I Know
TTITLE6=Big Joe Williams Trio - Going Back Home
TTITLE7=John Lee Hooker - I'm So Worried
TTITLE8=Jimmy Reed - Honey Don't Let Me Go
TTITLE9=Snooky Pryor - Judgment Day
TTITLE10=Elmore James - Coming Home
TTITLE11=Billy Boy Arnold - You've Got Me Wrong
TTITLE12=Jimmy Reed - I Love You Baby
TTITLE13=John Lee Hooker - Rosie Mae
TTITLE14=Elmore James - The Twelve Year Old Boy
TTITLE15=Big Joe WilliamsTrio - Baby Left Town
TTITLE16=Pee Wee Crayton - Tie it Down
TTITLE17=Snooky Pryor - You Tried to Ruin Me
TTITLE18=Billy Boy Arnold - My Heart is Crying
TTITLE19=Jimmy Reed - Honey Where You Going
EXTD=YEAR: 1955
EXTT0=
EXTT1=
EXTT2=
EXTT3=
EXTT4=
EXTT5=
EXTT6=
EXTT7=
EXTT8=
EXTT9=
EXTT10=
EXTT11=
EXTT12=
EXTT13=
EXTT14=
EXTT15=
EXTT16=
EXTT17=
EXTT18=
EXTT19=
PLAYORDER=
